<svg width="512" height="512" xmlns="http://www.w3.org/2000/svg">

 <g>
  <title>background</title>
  <rect fill="none" id="canvas_background" height="402" width="582" y="-1" x="-1"/>
 </g>
 <g>
  <title>Layer 1</title>
  <g stroke="null" id="svg_1">
   <g stroke="null" id="svg_2">
    <path stroke="null" id="svg_3" d="m1.381355,405.935c0.682749,-2.028 17.272736,-50.244 65.423693,-100.963c28.236105,-29.742 61.522128,-54.126 98.930902,-72.477c44.751354,-21.951 95.522208,-35.258 151.006655,-39.59l0,-129.292c0,-35.076 28.821896,-63.613 64.248073,-63.613c30.466149,0 56.029838,21.112 62.59574,49.332l50.352721,12.464c9.460514,2.342 16.068836,10.721 16.068836,20.377c0,11.582 -9.517073,21.004 -21.214701,21.004l-60.305098,0c-10.144273,9.905 -24.060834,16.032 -39.400462,16.032l-0.263606,0c2.157325,31.172 17.492912,54.868 32.358858,77.839c15.80624,24.425 32.151811,49.682 32.151811,83c0,18.697 -4.550985,37.849 -13.159073,55.384c-10.200832,20.777 -25.845475,39.212 -46.497615,54.792c-26.682751,20.129 -60.883818,35.029 -102.265867,44.637l0,62.139l49.097312,0c4.184361,0 7.574875,3.358 7.574875,7.5c0,4.142 -3.390514,7.5 -7.574875,7.5l-105.249358,0c-4.184361,0 -7.574875,-3.358 -7.574875,-7.5c0,-4.142 3.390514,-7.5 7.574875,-7.5l8.617178,0l0,-53.817c-25.117277,3.118 -52.28987,4.688 -81.483439,4.688l-137.634475,0c-2.172474,0 -4.24092,-0.924 -5.679137,-2.537c-1.437206,-1.613 -2.106825,-3.759 -1.83716,-5.894c0.057569,-0.446 1.21501,-9.321 5.723576,-23.706c-4.760052,0.048 -9.555453,0.072 -14.399333,0.072c-2.43507,0 -4.721672,-1.159 -6.144739,-3.115c-1.424077,-1.955 -1.81191,-4.469 -1.041293,-6.756zm487.41192,-317.757c3.345065,-0.001 6.06495,-2.694 6.06495,-6.005c0,-2.76 -1.888669,-5.155 -4.594414,-5.825l-45.065458,-11.155c-0.233306,8.23 -2.273473,16.018 -5.754885,22.985l49.349808,0zm-99.705559,16.031c22.608478,0 41.002295,-18.211 41.002295,-40.597c-0.00101,-26.804 -22.025718,-48.612 -49.099332,-48.612c-27.073615,0 -49.098322,21.808 -49.098322,48.613l0,96.514c23.420505,-1.241 39.950903,-8.239 47.018766,-11.834c-3.417784,-11.106 -5.49532,-23.155 -5.49532,-36.584c0,-4.142 3.390514,-7.5 7.574875,-7.5l8.097037,0zm-130.06061,392.791l17.234356,0l0,-58.92c-5.625607,1.088 -11.366353,2.091 -17.234356,2.998l0,55.922zm89.463318,-184.654c13.935751,-15.836 20.104729,-30.906 22.834714,-41.496c-51.457643,53.226 -121.511101,65.685 -175.799727,65.685c-15.603233,0 -29.911668,-1.03 -42.093077,-2.416c-4.156082,-0.473 -7.137553,-4.192 -6.66084,-8.308s4.23688,-7.061 8.390942,-6.595c55.835921,6.356 158.6391,4.966 219.768344,-75.733l0.00101,0.001c1.152391,-1.522 2.885523,-2.614 4.934779,-2.918c4.127802,-0.617 7.994018,2.208 8.614148,6.304c0.224216,1.478 5.101426,36.622 -28.025019,74.707c-23.557862,27.085 -60.291968,48.743 -109.183243,64.372c-55.520806,17.748 -126.826643,27.658 -212.302547,29.53c-2.4078,7.103 -4.000544,13.02 -5.027697,17.392l128.452716,0c99.368225,0 174.093865,-18.363 222.101405,-54.579c46.713751,-35.24 53.688697,-76.679 53.688697,-98.244c0,-28.924 -14.454882,-51.26 -29.75815,-74.907c-8.740396,-13.507 -17.62724,-27.25 -24.262831,-42.654c-9.253468,4.505 -27.34429,11.497 -52.27169,12.664l0,24.735c0,3.955 -3.100649,7.23 -7.088063,7.484c-56.062158,3.581 -107.172367,16.486 -151.91362,38.355c-35.741292,17.47 -67.553748,40.685 -94.552624,69c-33.504179,35.136 -51.277866,69.626 -58.553787,86.037c208.43229,-1.633 293.813255,-48.765 328.706161,-88.416z"/>
   </g>
  </g>
  <g stroke="null" id="svg_4">
   <g stroke="null" id="svg_5">
    <path stroke="null" id="svg_6" d="m103.730638,316.472938c1.194404,-3.989 5.644315,-6.328 9.95301,-5.219c0.036651,0.009 3.775094,0.966 10.320601,2.257c4.367984,0.861 7.155646,4.844 6.226425,8.896c-0.807409,3.526 -4.163167,5.942 -7.899453,5.942c-0.557317,0 -1.123257,-0.054 -1.689198,-0.166c-7.092045,-1.398 -11.12262,-2.435 -11.291863,-2.478c-4.298993,-1.11 -6.813925,-5.243 -5.619521,-9.232z"/>
   </g>
  </g>
  <g id="svg_7">
   <g id="svg_8">
    <path id="svg_9" d="m391.733,29.065c-12.976,0 -23.532,10.557 -23.532,23.532c0,12.975 10.557,23.532 23.533,23.532s23.532,-10.557 23.532,-23.532c0,-12.976 -10.557,-23.532 -23.533,-23.532zm0.001,32.064c-4.706,0 -8.533,-3.828 -8.533,-8.532c0,-4.704 3.828,-8.532 8.533,-8.532s8.532,3.828 8.532,8.532c0,4.704 -3.827,8.532 -8.532,8.532z"/>
   </g>
  </g>
  <g id="svg_10"/>
  <g id="svg_11"/>
  <g id="svg_12"/>
  <g id="svg_13"/>
  <g id="svg_14"/>
  <g id="svg_15"/>
  <g id="svg_16"/>
  <g id="svg_17"/>
  <g id="svg_18"/>
  <g id="svg_19"/>
  <g id="svg_20"/>
  <g id="svg_21"/>
  <g id="svg_22"/>
  <g id="svg_23"/>
  <g id="svg_24"/>
 </g>
</svg>