<svg width="470" height="470" xmlns="http://www.w3.org/2000/svg">

 <g>
  <title>background</title>
  <rect fill="none" id="canvas_background" height="402" width="582" y="-1" x="-1"/>
 </g>
 <g>
  <title>Layer 1</title>
  <g stroke="null" id="svg_1">
   <path stroke="null" id="svg_2" d="m104.166462,185.698682l152.317367,0l0,-127.441382c0,-31.572077 22.829108,-57.257312 50.890459,-57.257312l17.295074,0c28.06135,0 50.890459,25.685235 50.890459,57.257312c0,1.442834 -0.053986,2.872723 -0.147798,4.292655l22.075956,0c12.775273,0 23.168071,11.694026 23.168071,26.067601s-10.393683,26.067601 -23.168071,26.067601l-58.296312,0l-0.00354,15.325507l61.464686,65.991985c12.900061,13.8528 20.004122,32.500111 20.004122,52.504623c0,85.867049 -70.670671,155.72551 -157.535449,155.72551c-6.089827,0 -12.124783,-0.350502 -18.087167,-1.02263l-6.657125,50.853678l67.212895,0c3.665756,0 6.637655,3.342715 6.637655,7.468085s-2.971899,7.468085 -6.637655,7.468085l-84.937204,0c-3.666641,0 -6.637655,-3.342715 -6.637655,-7.468085s2.971014,-7.468085 6.637655,-7.468085l4.305626,0l6.922632,-52.890972c-29.943789,-5.944596 -57.478552,-20.424715 -79.584599,-42.215593c-14.167411,-13.964324 -25.307166,-30.138205 -33.109508,-47.742971c-27.153319,-1.652936 -49.211574,-25.228188 -52.384373,-55.239933l-11.822991,0c-3.666641,0 -6.637655,-3.342715 -6.637655,-7.468085c-0.000885,-34.632001 25.04166,-62.807593 55.824449,-62.807593zm158.955022,203.596933c79.544773,0 144.260139,-63.158095 144.260139,-140.78934c0,-15.883124 -5.644662,-30.691839 -15.894086,-41.698801l-34.945041,-37.520656l-86.783357,0l0,16.410868l5.655282,0c30.781904,0 55.824449,28.175592 55.824449,62.807593c0,34.632997 -25.042545,62.808589 -55.824449,62.808589l-141.003263,0c23.624742,46.191601 72.441597,77.981747 128.710326,77.981747zm42.575689,-289.547624l26.382466,0c13.06733,-2.930477 23.425612,-13.282239 27.860451,-26.74172l-17.157011,-15.341439l-10.233494,0c-3.665756,0 -6.637655,-3.342715 -6.637655,-7.468085s2.971899,-7.468085 6.637655,-7.468085l12.549593,0c1.50011,0 2.955969,0.571557 4.130391,1.622068l12.998299,11.622332c-1.058485,-22.277796 -17.498629,-40.036903 -37.558507,-40.036903l-17.295074,0c-20.741344,0 -37.615149,18.984869 -37.615149,42.321141l0,67.479627l56.155447,0l0.002655,-11.052766l-20.220067,0c-3.665756,0 -6.637655,-3.342715 -6.637655,-7.468085s2.971014,-7.468085 6.637655,-7.468085zm101.68445,-11.13143c0,-6.13777 -4.438379,-11.13143 -9.892761,-11.13143l-24.876161,0c-2.687808,8.50366 -7.110256,16.119115 -12.84165,22.26286l37.716926,0c5.455267,0 9.893646,-4.99366 9.893646,-11.13143zm-77.49064,52.056537l-60.132729,0l0,13.678545l72.872602,0l-12.739873,-13.678545zm-223.710215,115.301262l-25.974472,0c2.727634,19.505643 15.962233,35.128877 32.95817,39.299056c-3.979938,-12.616085 -6.347368,-25.796758 -6.983698,-39.299056zm-33.133404,-14.936171l198.451725,0c3.665756,0 6.637655,3.342715 6.637655,7.46709c0,4.12537 -2.971899,7.469081 -6.637655,7.469081l-152.02,0c0.757578,14.113685 3.65071,27.682699 8.365215,40.404333l147.569232,0c21.20421,0 38.831167,-17.542034 42.027862,-40.404333l-19.391688,0c-3.665756,0 -6.637655,-3.342715 -6.637655,-7.468085c0,-4.12537 2.971899,-7.468085 6.637655,-7.468085l19.391688,0c-3.196695,-22.861303 -20.823651,-40.403337 -42.027862,-40.403337l-171.24796,0c-21.205095,0 -38.836477,17.540043 -42.032287,40.403337l10.914075,0z"/>
  </g>
  <g id="svg_3"/>
  <g id="svg_4"/>
  <g id="svg_5"/>
  <g id="svg_6"/>
  <g id="svg_7"/>
  <g id="svg_8"/>
  <g id="svg_9"/>
  <g id="svg_10"/>
  <g id="svg_11"/>
  <g id="svg_12"/>
  <g id="svg_13"/>
  <g id="svg_14"/>
  <g id="svg_15"/>
  <g id="svg_16"/>
  <g id="svg_17"/>
 </g>
</svg>