<svg width="47.25" height="47.25" xmlns="http://www.w3.org/2000/svg">

 <g>
  <title>background</title>
  <rect fill="none" id="canvas_background" height="402" width="582" y="-1" x="-1"/>
 </g>
 <g>
  <title>Layer 1</title>
  <g stroke="null" id="svg_1">
   <path stroke="null" id="svg_2" d="m5.119751,14.030599c0.256251,-0.188671 0.587028,-0.247258 0.894325,-0.162853l9.559887,2.643376l0,-6.333377c0,-5.5211 4.618638,-10.012455 10.293928,-10.012455c5.67631,0 10.293928,4.491355 10.293928,10.012455l0,0.984067l5.945833,2.638411c0.363447,0.16186 0.597238,0.514376 0.597238,0.903633s-0.23379,0.741774 -0.597238,0.903633l-5.945833,2.637418l0,8.234979c0,0.055608 -0.023481,0.104265 -0.032669,0.157888c-0.259313,6.151657 -4.256212,11.371877 -9.848807,13.558471l0,5.895462c0,0.549131 -0.457372,0.993004 -1.020919,0.993004s-1.020919,-0.443873 -1.020919,-0.993004l0,-5.258947c-1.219998,0.295915 -2.48798,0.470684 -3.800882,0.470684c-0.234811,0 -0.463497,-0.024825 -0.696267,-0.034755l0,4.823019c0,0.549131 -0.456351,0.993004 -1.020919,0.993004s-1.020919,-0.443873 -1.020919,-0.993004l0,-5.036514c-7.367973,-1.26608 -12.987112,-7.522995 -12.987112,-15.046984l0,-11.185193c0.002042,-0.31081 0.152117,-0.604739 0.407347,-0.792417zm34.104824,0.673256l-3.062757,-1.359422l0,2.717851l3.062757,-1.358429zm-32.468291,11.304353c0,7.338297 6.138787,13.308234 13.682358,13.308234s13.682358,-5.970931 13.682358,-13.308234l0,-15.830464c0,-4.425817 -3.702874,-8.026448 -8.25311,-8.026448s-8.252089,3.600631 -8.252089,8.026448l0,9.185283c0,0.548138 -0.456351,0.993004 -1.020919,0.993004s-1.020919,-0.444866 -1.020919,-0.993004l0,-0.787452l-8.818699,-2.438817l0,9.871449l0.001021,0z"/>
   <circle stroke="null" id="svg_3" r="1.371565" cy="13.01449" cx="27.917024"/>
   <path stroke="null" id="svg_4" d="m18.073172,24.281375c0.483916,-0.284992 1.11076,-0.134055 1.401722,0.335635c0.291983,0.469691 0.137824,1.079395 -0.345071,1.363394c-1.245521,0.73383 -3.381284,1.35545 -6.735003,0.510404c0.645221,3.48445 3.467041,5.813043 7.262819,5.813043c3.450707,0 6.413414,-2.27795 7.204626,-5.539967c0.128636,-0.533243 0.680953,-0.861927 1.228166,-0.738795c0.549254,0.126111 0.889221,0.66134 0.759564,1.194583c-1.008668,4.162671 -4.788111,7.070186 -9.191335,7.070186c-5.381265,0 -9.35264,-3.855833 -9.443502,-9.168402c-0.005105,-0.325705 0.153138,-0.633536 0.425723,-0.8232c0.272585,-0.188671 0.622761,-0.237328 0.938225,-0.128097c2.750356,0.954276 4.995357,0.993004 6.494067,0.111216z"/>
  </g>
  <g id="svg_5"/>
  <g id="svg_6"/>
  <g id="svg_7"/>
  <g id="svg_8"/>
  <g id="svg_9"/>
  <g id="svg_10"/>
  <g id="svg_11"/>
  <g id="svg_12"/>
  <g id="svg_13"/>
  <g id="svg_14"/>
  <g id="svg_15"/>
  <g id="svg_16"/>
  <g id="svg_17"/>
  <g id="svg_18"/>
  <g id="svg_19"/>
 </g>
</svg>